<svg width="16" height="16" viewBox="0 0 16 16" fill="none" xmlns="http://www.w3.org/2000/svg">
<path d="M12.9528 3.05329C10.2208 0.31795 5.78868 0.31523 3.0533 3.04718C0.317958 5.7792 0.315205 10.2113 3.04722 12.9467C5.77917 15.6821 10.2114 15.6848 12.9467 12.9528C15.682 10.2208 15.6848 5.78863 12.9528 3.05329ZM8.97738 12.4418C8.97738 12.5498 8.88985 12.6373 8.78191 12.6373H7.21812C7.11018 12.6373 7.02265 12.5498 7.02265 12.4418V6.6367C7.02265 6.52869 7.11018 6.44122 7.21812 6.44122H8.78191C8.88985 6.44122 8.97738 6.52865 8.97738 6.6367V12.4418ZM8.00001 5.62999C7.37492 5.62999 6.86633 5.12147 6.86633 4.49634C6.86633 3.87127 7.37489 3.36265 8.00001 3.36265C8.62514 3.36265 9.1337 3.87124 9.1337 4.49634C9.1337 5.12147 8.62508 5.62999 8.00001 5.62999Z" fill="#FF0000"/>
</svg>
