<svg width="16" height="16" viewBox="0 0 16 16" fill="none" xmlns="http://www.w3.org/2000/svg">
<path d="M11.9628 6.38449C11.9134 6.30718 11.8258 6.2686 11.739 6.28649L9.03044 6.83529L9.5804 1.25448C9.5909 1.14839 9.53129 1.04915 9.43559 1.01337C9.33974 0.977746 9.23412 1.01508 9.1785 1.10437L4.03608 9.36055C3.98756 9.43832 3.988 9.5385 4.03726 9.6155C4.08607 9.69219 4.17364 9.73092 4.26106 9.71381L6.96977 9.16486L6.4198 14.7455C6.4093 14.8519 6.46891 14.9512 6.56462 14.9868C6.58813 14.9955 6.61284 15 6.63798 15C6.71224 15 6.78073 14.961 6.82155 14.8958L11.964 6.6396C12.0125 6.56182 12.0119 6.46164 11.9628 6.38449Z" fill="#FF0000"/>
</svg>
