<svg width="16" height="16" viewBox="0 0 16 16" fill="none" xmlns="http://www.w3.org/2000/svg">
<path d="M10.7423 4.29651L8.5 2.13953L6.25769 4.29651L5.66539 3.72674L8.5 1L11.3346 3.72674L10.7423 4.29651Z" fill="#FF0000"/>
<path d="M8.07692 1.56977H8.92308V10.1163H8.07692V1.56977Z" fill="#FF0000"/>
<path d="M12.7308 15H4.26923C3.55 15 3 14.4709 3 13.7791V6.45349C3 5.76163 3.55 5.23256 4.26923 5.23256H7.23077V6.04651H4.26923C4.01538 6.04651 3.84615 6.2093 3.84615 6.45349V13.7791C3.84615 14.0233 4.01538 14.186 4.26923 14.186H12.7308C12.9846 14.186 13.1538 14.0233 13.1538 13.7791V6.45349C13.1538 6.2093 12.9846 6.04651 12.7308 6.04651H9.76923V5.23256H12.7308C13.45 5.23256 14 5.76163 14 6.45349V13.7791C14 14.4709 13.45 15 12.7308 15Z" fill="#FF0000"/>
</svg>
