<svg width="16" height="16" viewBox="0 0 16 16" fill="none" xmlns="http://www.w3.org/2000/svg">
<g clip-path="url(#clip0_82_61)">
<path d="M7.29297 5.87868C7.6835 6.2692 8.31666 6.2692 8.70719 5.87868L11.5356 3.05025C11.9261 2.65973 12.5593 2.65973 12.9498 3.05025C13.3404 3.44077 13.3404 4.07394 12.9498 4.46446L10.1214 7.29289C9.73088 7.68342 9.73088 8.31658 10.1214 8.7071L12.9498 11.5355C13.3404 11.9261 13.3404 12.5592 12.9498 12.9497C12.5593 13.3403 11.9261 13.3403 11.5356 12.9497L8.70719 10.1213C8.31666 9.73079 7.6835 9.73079 7.29297 10.1213L4.46455 12.9497C4.07402 13.3403 3.44086 13.3403 3.05033 12.9497C2.65981 12.5592 2.65981 11.9261 3.05033 11.5355L5.87876 8.70711C6.26928 8.31658 6.26928 7.68342 5.87876 7.29289L3.05033 4.46447C2.65981 4.07394 2.65981 3.44078 3.05033 3.05025C3.44086 2.65973 4.07402 2.65973 4.46455 3.05025L7.29297 5.87868Z" fill="white"/>
</g>
<defs>
<clipPath id="clip0_82_61">
<rect width="16" height="16" fill="white"/>
</clipPath>
</defs>
</svg>
