<svg width="5" height="6" viewBox="0 0 5 6" fill="none" xmlns="http://www.w3.org/2000/svg">
<path d="M1.67037 1.39785C1.67037 0.793825 1.82572 0.582895 2.02962 0.582895C2.25294 0.582895 2.5248 0.822588 2.71899 1.05269C2.84521 1.19651 2.88405 1.84847 2.88405 2.66343C2.88405 4.27417 2.71899 6.50811 2.71899 6.50811C2.70928 6.64233 2.61219 6.69986 2.47625 6.69986C2.17526 6.69986 1.68979 6.38346 1.67037 6.00954C1.66066 5.82738 1.66066 5.38634 1.66066 4.84943C1.66066 3.75643 1.67037 2.23198 1.67037 1.39785Z" fill="white"/>
<path d="M0.824357 3.92107C0.68099 4.26515 0.544792 4.39418 0.422931 4.39418C0.236554 4.39418 0.0860198 4.11462 0.00716832 3.87089C6.49658e-09 3.84939 6.66754e-09 3.83505 7.00947e-09 3.80638C1.41044e-08 3.21141 1.53402 0.0860211 1.53402 0.0860211C1.56269 0.0215062 1.6057 1.29413e-06 1.66305 1.29481e-06C1.81358 1.29661e-06 2.02147 0.200714 2.10032 0.422932C2.15766 0.451605 2.21501 0.487447 2.25802 0.537625C2.52325 0.853031 3.76337 2.55192 4.3225 3.3046C4.4802 3.51965 4.54471 3.67735 4.54471 3.78487C4.54471 3.95691 4.38701 4.01426 4.19347 4.01426C4.07877 4.01426 3.96408 3.99992 3.85656 3.97125C3.56265 3.89957 2.47307 2.3082 1.85659 1.37632C1.54836 2.13616 1.06808 3.29743 0.824357 3.92107Z" fill="white"/>
</svg>
