<svg width="5" height="7" viewBox="0 0 5 7" fill="none" xmlns="http://www.w3.org/2000/svg">
<path d="M2.87435 5.30201C2.87435 5.90604 2.71899 6.11697 2.5151 6.11696C2.29178 6.11696 2.01991 5.87727 1.82572 5.64717C1.6995 5.50335 1.66066 4.85139 1.66066 4.03643C1.66066 2.42569 1.82572 0.191755 1.82572 0.191755C1.83543 0.0575265 1.93253 1.57063e-07 2.06846 1.63005e-07C2.36945 1.76162e-07 2.85493 0.316395 2.87435 0.690316C2.88406 0.872483 2.88406 1.31352 2.88406 1.85043C2.88406 2.94343 2.87435 4.46788 2.87435 5.30201Z" fill="white"/>
<path d="M3.72036 2.77879C3.86373 2.43471 3.99992 2.30568 4.12179 2.30568C4.30816 2.30568 4.4587 2.58524 4.53755 2.82897C4.54472 2.85047 4.54472 2.86481 4.54472 2.89348C4.54472 3.48845 3.0107 6.61384 3.0107 6.61384C2.98202 6.67835 2.93901 6.69986 2.88167 6.69986C2.73113 6.69986 2.52325 6.49915 2.4444 6.27693C2.38705 6.24825 2.32971 6.21241 2.2867 6.16223C2.02147 5.84683 0.781349 4.14794 0.22222 3.39526C0.064517 3.18021 2.35285e-06 3.02251 2.35755e-06 2.91499C2.36507e-06 2.74295 0.157705 2.6856 0.35125 2.6856C0.465943 2.6856 0.580636 2.69994 0.688161 2.72861C0.982062 2.80029 2.07165 4.39166 2.68812 5.32354C2.99636 4.5637 3.47664 3.40243 3.72036 2.77879Z" fill="white"/>
</svg>
